<?xml version="1.0" encoding="UTF-8"?>
<svg width="65px" height="58px" viewBox="0 0 65 58" version="1.1" xmlns="http://www.w3.org/2000/svg" xmlns:xlink="http://www.w3.org/1999/xlink">
    <!-- Generator: Sketch 55.2 (78181) - https://sketchapp.com -->
    <title>umbrella</title>
    <desc>Created with Sketch.</desc>
    <g id="Page-1" stroke="none" stroke-width="1" fill="none" fill-rule="evenodd">
        <g id="umbrella" transform="translate(29.998351, 35.078345) rotate(-17.500000) translate(-29.998351, -35.078345) translate(-4.001649, 4.578345)" fill-rule="nonzero">
            <path d="M1.021,42.289 C1.002,42.506 0.992,42.668 1,42.726 C1.012,42.809 1.089,42.867 1.173,42.855 C1.193,42.853 1.211,42.847 1.227,42.838 C1.28,42.808 1.313,42.747 1.305,42.683 C1.288,42.547 1.404,41.54 1.527,40.573 C1.334,41.099 1.162,41.669 1.021,42.289" id="Fill-1" fill="#0A0B09"></path>
            <path d="M6.024,35.054 C6.024,35.054 2.28,36.696 1.013,42.32 C6.738,38.24 8.637,38.092 12.659,37.915 C12.638,36.806 12.64,33.278 13.344,28.537 C10.979,29.602 7.783,31.596 6.024,35.054" id="Fill-2" fill="#1E1E43"></path>
            <path d="M16.316,27.487 C16.316,27.487 15.207,27.736 13.677,28.391 C12.979,32.998 12.946,36.485 12.964,37.75 C18.816,32.165 26.205,30.909 26.239,30.903 C25.074,28.052 24.293,24.779 23.777,21.517 C18.087,25.274 16.316,27.487 16.316,27.487" id="Fill-3" fill="#253968"></path>
            <path d="M23.776,21.517 C24.293,24.779 25.074,28.051 26.239,30.903 C26.289,31.026 26.337,31.151 26.388,31.271 C26.421,31.349 26.511,31.386 26.589,31.352 C26.594,31.35 26.6,31.348 26.604,31.345 C26.671,31.308 26.701,31.224 26.67,31.151 C26.591,30.965 26.514,30.776 26.438,30.587 C25.312,27.765 24.557,24.541 24.058,21.333 C23.963,21.395 23.869,21.456 23.776,21.517" id="Fill-4" fill="#0A0B09"></path>
            <path d="M13.344,28.537 C12.64,33.278 12.638,36.806 12.659,37.915 C12.663,38.141 12.67,38.267 12.67,38.282 C12.674,38.366 12.746,38.432 12.831,38.428 C12.916,38.423 12.981,38.351 12.976,38.266 C12.975,38.249 12.968,38.071 12.964,37.75 C12.946,36.485 12.979,32.998 13.677,28.391 C13.567,28.438 13.457,28.486 13.344,28.537" id="Fill-5" fill="#0A0B09"></path>
            <path d="M7.727,26.087 C9.636,19.981 13.681,11.791 22.252,4.91 C22.421,4.762 22.636,4.611 22.762,4.512 C12.035,12.399 6.54,22.188 3.798,29.814 C1.206,37.021 1.013,42.32 1.013,42.32 C2.28,36.695 6.024,35.054 6.024,35.054 C6.024,35.054 6.085,31.343 7.727,26.087" id="Fill-6" fill="#1F5C9B"></path>
            <path d="M15.785,18.871 C16.442,10.828 20.451,6.479 22.252,4.91 C13.681,11.791 9.636,19.981 7.728,26.088 C6.084,31.343 6.024,35.054 6.024,35.054 C9.047,29.111 16.316,27.487 16.316,27.487 C16.015,25.896 15.833,24.398 15.748,22.989 C15.661,21.52 15.681,20.149 15.785,18.871" id="Fill-7" fill="#38A2CF"></path>
            <path d="M67.075,5.569 C67.269,5.668 67.412,5.745 67.457,5.783 C67.522,5.837 67.529,5.933 67.476,5.998 C67.464,6.013 67.449,6.025 67.432,6.034 C67.379,6.064 67.31,6.06 67.26,6.019 C67.153,5.932 66.237,5.5 65.351,5.093 C65.9,5.207 66.474,5.362 67.075,5.569" id="Fill-8" fill="#0A0B09"></path>
            <path d="M58.289,5.999 C58.289,5.999 61.66,3.686 67.105,5.579 C60.618,8.288 59.49,9.822 57.217,13.145 C56.286,12.542 53.288,10.682 48.89,8.778 C51.043,7.33 54.423,5.669 58.289,5.999" id="Fill-9" fill="#1E1E43"></path>
            <path d="M46.429,10.747 C46.429,10.747 47.227,9.936 48.591,8.983 C52.871,10.822 55.851,12.635 56.916,13.317 C49.083,15.34 44.116,20.953 44.093,20.978 C42.286,18.483 39.919,16.093 37.421,13.932 C43.615,11.083 46.429,10.747 46.429,10.747" id="Fill-10" fill="#253968"></path>
            <path d="M37.421,13.932 C39.919,16.093 42.286,18.483 44.093,20.978 C44.171,21.085 44.252,21.192 44.327,21.299 C44.376,21.368 44.36,21.464 44.29,21.513 C44.286,21.516 44.281,21.519 44.276,21.521 C44.208,21.559 44.122,21.54 44.076,21.475 C43.96,21.31 43.84,21.145 43.719,20.98 C41.917,18.534 39.577,16.191 37.117,14.073 C37.219,14.025 37.32,13.978 37.421,13.932" id="Fill-11" fill="#0A0B09"></path>
            <path d="M48.89,8.778 C53.288,10.681 56.286,12.542 57.217,13.146 C57.406,13.269 57.511,13.339 57.523,13.348 C57.592,13.396 57.61,13.492 57.561,13.562 C57.513,13.632 57.417,13.649 57.348,13.6 C57.333,13.59 57.186,13.49 56.916,13.317 C55.851,12.635 52.871,10.822 48.591,8.983 C48.688,8.915 48.788,8.846 48.89,8.778" id="Fill-12" fill="#0A0B09"></path>
            <path d="M49.774,2.713 C43.581,1.112 34.489,0.225 24.122,3.871 C23.906,3.937 23.665,4.04 23.514,4.094 C35.875,-0.854 47.089,-0.353 55.014,1.344 C62.503,2.947 67.105,5.58 67.105,5.58 C61.66,3.686 58.289,5.999 58.289,5.999 C58.289,5.999 55.105,4.092 49.774,2.713" id="Fill-13" fill="#1F5C9B"></path>
            <path d="M39.391,5.748 C32.214,2.06 26.404,3.169 24.122,3.871 C34.489,0.224 43.581,1.111 49.774,2.714 C55.105,4.092 58.288,5.999 58.288,5.999 C51.646,5.43 46.429,10.747 46.429,10.747 C45.237,9.651 44.062,8.706 42.909,7.89 C41.708,7.041 40.532,6.335 39.391,5.748" id="Fill-14" fill="#38A2CF"></path>
            <path d="M26.438,30.587 C25.312,27.765 24.557,24.541 24.057,21.333 C24.266,21.196 24.481,21.056 24.7,20.916 C24.721,20.903 24.742,20.889 24.762,20.877 C24.963,20.748 25.169,20.617 25.379,20.485 C25.428,20.454 25.477,20.424 25.526,20.393 C25.715,20.274 25.909,20.154 26.105,20.032 C26.184,19.984 26.263,19.936 26.342,19.887 C26.52,19.778 26.701,19.668 26.884,19.557 C26.99,19.493 27.099,19.428 27.207,19.364 C27.374,19.263 27.541,19.163 27.713,19.062 C27.849,18.981 27.99,18.899 28.13,18.817 C28.282,18.728 28.433,18.639 28.589,18.548 C28.771,18.443 28.959,18.336 29.146,18.229 C29.27,18.158 29.388,18.089 29.514,18.018 C29.823,17.842 30.139,17.665 30.463,17.484 C30.464,17.484 30.464,17.484 30.465,17.484 C30.465,17.483 30.466,17.483 30.466,17.483 C30.79,17.303 31.108,17.128 31.421,16.958 C31.547,16.889 31.669,16.824 31.794,16.757 C31.984,16.654 32.173,16.552 32.359,16.452 C32.519,16.368 32.674,16.286 32.83,16.204 C32.973,16.128 33.117,16.052 33.258,15.979 C33.435,15.887 33.608,15.798 33.781,15.709 C33.893,15.652 34.006,15.593 34.116,15.537 C34.307,15.44 34.495,15.345 34.682,15.251 C34.766,15.209 34.849,15.167 34.931,15.127 C35.138,15.024 35.343,14.922 35.543,14.824 C35.595,14.799 35.647,14.773 35.698,14.748 C35.921,14.64 36.142,14.534 36.356,14.431 C36.378,14.421 36.401,14.41 36.422,14.4 C36.658,14.288 36.89,14.179 37.116,14.073 C39.577,16.191 41.917,18.534 43.719,20.98 C39.348,21.051 34.728,23.7 34.122,24.059 C34.122,24.059 34.121,24.059 34.12,24.06 L34.119,24.061 C33.494,24.386 28.805,26.911 26.438,30.587" id="Fill-15" fill="#1E1E43"></path>
            <path d="M46.53,10.649 C46.767,10.9 46.886,11.06 46.892,11.068 C46.942,11.136 46.928,11.232 46.859,11.282 C46.853,11.287 46.849,11.29 46.843,11.293 C46.777,11.33 46.691,11.312 46.644,11.249 C46.643,11.248 46.506,11.062 46.228,10.779 C46.361,10.755 46.43,10.746 46.43,10.746 C46.43,10.746 46.466,10.71 46.53,10.649" id="Fill-16" fill="#0A0B09"></path>
            <path d="M58.436,5.909 C58.64,6.055 58.798,6.204 58.81,6.214 C58.871,6.272 58.874,6.369 58.816,6.43 C58.804,6.442 58.792,6.452 58.778,6.46 C58.722,6.491 58.649,6.484 58.599,6.437 C58.595,6.434 58.256,6.118 57.96,5.98 C58.069,5.986 58.178,5.99 58.288,5.999 C58.288,5.999 58.339,5.965 58.436,5.909" id="Fill-17" fill="#0A0B09"></path>
            <path d="M16.18,27.52 C16.268,27.855 16.341,28.04 16.345,28.05 C16.377,28.128 16.466,28.166 16.544,28.135 C16.55,28.132 16.556,28.129 16.562,28.126 C16.628,28.089 16.659,28.007 16.63,27.935 C16.628,27.932 16.543,27.718 16.449,27.333 C16.36,27.433 16.316,27.487 16.316,27.487 C16.316,27.487 16.266,27.498 16.18,27.52" id="Fill-18" fill="#0A0B09"></path>
            <path d="M5.869,35.13 C5.886,35.381 5.928,35.594 5.93,35.608 C5.948,35.691 6.029,35.745 6.112,35.729 C6.128,35.725 6.142,35.72 6.156,35.713 C6.213,35.681 6.246,35.615 6.232,35.548 C6.231,35.543 6.141,35.088 6.181,34.764 C6.129,34.86 6.074,34.955 6.024,35.053 C6.024,35.053 5.968,35.078 5.869,35.13" id="Fill-19" fill="#0A0B09"></path>
            <path d="M48.586,51.94 L48.727,52.193 L48.738,52.213 C48.84,52.366 49.249,52.308 49.664,52.077 C50.051,51.861 50.306,51.574 50.278,51.399 L50.092,51.065 C50.512,50.951 50.847,50.975 50.949,51.158 C51.051,51.341 50.894,51.638 50.575,51.934 L53.226,56.702 C54.451,58.906 56.821,58.903 58.504,57.968 C60.183,57.033 61.338,55.121 60.132,52.951 L59.835,52.417 L61.357,51.571 L61.803,52.374 L61.797,52.377 C63.262,55.341 61.711,58.177 59.35,59.489 C56.857,60.876 53.43,60.654 51.704,57.548 L49.037,52.751 C48.674,52.83 48.389,52.797 48.298,52.632 C48.206,52.467 48.328,52.208 48.586,51.94" id="Fill-20" fill="#1F5C9B"></path>
            <path d="M29.979,14.883 L50.231,51.316 L50.278,51.399 C50.306,51.574 50.051,51.861 49.664,52.077 C49.249,52.308 48.841,52.366 48.738,52.213 L48.727,52.193 L48.586,51.94 L28.457,15.729" id="Fill-21" fill="#0A0B09"></path>
            <path d="M15.748,22.989 C15.661,21.52 15.682,20.149 15.785,18.871 C16.442,10.828 20.451,6.479 22.252,4.91 C22.53,4.686 22.813,4.464 23.102,4.242 C23.102,4.241 23.103,4.241 23.103,4.241 C23.104,4.241 23.105,4.241 23.105,4.24 L23.105,4.241 C23.445,4.112 23.784,3.99 24.122,3.871 C26.404,3.169 32.214,2.06 39.391,5.748 C40.533,6.334 41.708,7.041 42.909,7.89 C44.062,8.706 45.237,9.652 46.429,10.747 C46.429,10.747 43.314,11.119 36.422,14.4 C36.4,14.41 36.379,14.421 36.356,14.431 C36.141,14.534 35.921,14.64 35.698,14.748 C35.647,14.773 35.595,14.799 35.543,14.824 C35.342,14.923 35.138,15.023 34.931,15.127 C34.849,15.168 34.766,15.209 34.682,15.251 C34.495,15.345 34.308,15.439 34.116,15.537 C34.005,15.593 33.893,15.652 33.781,15.709 C33.608,15.798 33.435,15.887 33.258,15.979 C33.117,16.052 32.974,16.128 32.83,16.204 C32.674,16.286 32.519,16.368 32.359,16.452 C32.173,16.551 31.984,16.655 31.794,16.757 C31.669,16.824 31.547,16.889 31.421,16.958 C31.107,17.128 30.789,17.303 30.465,17.483 C30.14,17.664 29.824,17.842 29.514,18.018 C29.388,18.089 29.27,18.159 29.146,18.229 C28.959,18.336 28.771,18.443 28.589,18.548 C28.433,18.639 28.282,18.728 28.129,18.817 C27.99,18.899 27.85,18.981 27.713,19.062 C27.541,19.163 27.374,19.263 27.207,19.364 C27.099,19.428 26.99,19.493 26.884,19.557 C26.7,19.668 26.521,19.778 26.342,19.887 C26.263,19.936 26.184,19.984 26.106,20.033 C25.908,20.154 25.716,20.274 25.525,20.393 C25.477,20.424 25.428,20.454 25.379,20.485 C25.169,20.617 24.963,20.748 24.762,20.877 C24.741,20.89 24.721,20.903 24.7,20.916 C18.277,25.037 16.316,27.487 16.316,27.487 C16.015,25.896 15.833,24.398 15.748,22.989" id="Fill-22" fill="#1F5C9B"></path>
            <path d="M22.717,3.949 C22.713,3.935 22.711,3.927 22.708,3.915 C22.545,3.537 22.476,3.267 22.545,3.229 C22.613,3.19 22.806,3.392 23.042,3.73 C23.05,3.739 23.055,3.745 23.065,3.756 C23.274,4.002 23.727,4.008 23.727,4.008 C23.659,4.153 23.535,4.265 23.428,4.341 C23.328,4.412 23.242,4.453 23.231,4.46 L23.227,4.462 C23.216,4.468 23.136,4.519 23.023,4.566 C22.902,4.617 22.741,4.664 22.582,4.645 C22.582,4.645 22.816,4.256 22.717,3.949" id="Fill-23" fill="#0A0B09"></path>
        </g>
    </g>
</svg>